<?xml version="1.0" standalone="no"?>
<!DOCTYPE svg PUBLIC "-//W3C//DTD SVG 20010904//EN"
 "http://www.w3.org/TR/2001/REC-SVG-20010904/DTD/svg10.dtd">
<svg version="1.0" xmlns="http://www.w3.org/2000/svg"
 width="512.000000pt" height="512.000000pt" viewBox="0 0 512.000000 512.000000"
 preserveAspectRatio="xMidYMid meet">
<metadata>
Created by potrace 1.14, written by Peter Selinger 2001-2017
</metadata>
<g transform="translate(0.000000,512.000000) scale(0.100000,-0.100000)"
fill="#000000" stroke="none">
<path d="M2430 4560 c-331 -58 -591 -360 -598 -695 -2 -83 15 -124 71 -169 35
-28 46 -31 106 -31 55 0 74 4 104 25 46 31 75 88 82 160 7 73 23 126 57 181
138 228 476 228 617 0 85 -139 68 -316 -43 -440 -32 -36 -116 -88 -167 -102
-34 -10 -309 -13 -1279 -14 -1204 -1 -1236 -1 -1274 -20 -22 -11 -54 -37 -70
-58 -27 -34 -31 -46 -31 -100 1 -79 22 -119 83 -158 l46 -29 1250 0 c1400 0
1338 -3 1491 72 255 125 415 377 415 653 0 286 -157 535 -418 665 -119 59
-303 84 -442 60z"/>
<path d="M4244 3825 c-238 -52 -436 -215 -530 -437 -48 -115 -69 -278 -43
-345 17 -46 69 -92 121 -108 42 -12 55 -12 97 1 85 25 124 80 136 192 9 85 19
116 54 171 139 216 440 233 595 34 169 -217 44 -540 -225 -582 -30 -5 -1006
-8 -2170 -8 l-2116 0 -44 -21 c-112 -54 -136 -207 -46 -293 58 -55 -92 -52
2237 -52 1623 1 2161 4 2210 13 271 50 486 245 571 520 33 107 33 292 0 400
-80 262 -296 462 -556 515 -63 13 -231 13 -291 0z"/>
<path d="M103 1991 c-46 -21 -89 -77 -99 -128 -16 -79 36 -174 111 -204 23 -9
329 -12 1265 -14 1322 -1 1280 0 1364 -52 59 -37 84 -61 121 -119 77 -118 77
-268 0 -389 -71 -111 -177 -168 -312 -167 -134 1 -255 77 -317 201 -27 53 -32
74 -41 156 -13 114 -72 176 -173 182 -68 5 -112 -15 -155 -69 -42 -52 -48
-149 -18 -268 72 -284 270 -485 544 -550 345 -83 705 101 840 430 93 224 71
469 -58 670 -58 89 -108 144 -180 196 -89 63 -172 101 -270 124 -83 19 -119
20 -1333 20 -1203 0 -1248 -1 -1289 -19z"/>
</g>
</svg>
